<?xml version="1.0" encoding="UTF-8"?><svg id="Layer_1" xmlns="http://www.w3.org/2000/svg" viewBox="0 0 960 572.7"><defs><style>.cls-1{fill:#fff;stroke-width:0px;}</style></defs><path class="cls-1" d="M250.76,114.34h10.91v458.36h411.91c78.7,0,145.99-28.01,202.14-84.03,56.14-56.02,84.27-123.44,84.27-202.26h0c0-78.7-28.13-145.99-84.27-202.14C819.58,28.13,752.28,0,673.59,0s-146.24,28.13-202.26,84.27c-56.02,56.14-84.03,123.44-84.03,202.14h0c0,60.21,16.35,113.76,49.04,160.67h175.6c-21.85-8.34-41.73-21.47-59.6-39.41-33.59-33.47-50.32-73.97-50.32-121.26h0c0-47.17,16.73-87.55,50.32-121.38,33.47-33.71,73.97-50.56,121.26-50.56h0c47.17,0,87.55,16.86,121.38,50.56,33.71,33.83,50.56,74.21,50.56,121.38h0c0,47.29-16.86,87.79-50.56,121.26-33.83,33.59-74.21,50.32-121.38,50.32h-297.21V0H0v114.34h250.76Z"/><path class="cls-1" d="M136.42,125.26v218.26c0,31.53-11.28,58.45-33.95,80.88-22.55,22.31-49.47,33.59-80.76,33.59h0c-6.67,0-13.95-.61-21.71-1.82v115.44c7.15.73,14.31,1.09,21.71,1.09h0c62.93,0,116.89-22.43,161.76-67.18,44.86-44.74,67.3-98.7,67.3-162V125.26h-114.34Z"/></svg>